<?xml version="1.0" standalone="no"?>
<!DOCTYPE svg PUBLIC "-//W3C//DTD SVG 20010904//EN"
 "http://www.w3.org/TR/2001/REC-SVG-20010904/DTD/svg10.dtd">
<svg version="1.0" xmlns="http://www.w3.org/2000/svg"
 width="300.000000pt" height="300.000000pt" viewBox="0 0 300.000000 300.000000"
 preserveAspectRatio="xMidYMid meet">
<metadata>
Created by potrace 1.14, written by Peter Selinger 2001-2017
</metadata>
<g transform="translate(0.000000,300.000000) scale(0.100000,-0.100000)"
fill="#000000" stroke="none">
<path d="M1349 2995 c-3 -2 -26 -6 -53 -10 -84 -10 -188 -34 -261 -60 -38 -14
-74 -27 -80 -29 -84 -26 -281 -136 -369 -206 -100 -81 -201 -182 -270 -272
-31 -40 -61 -78 -66 -85 -6 -7 -10 -15 -10 -19 0 -3 -8 -18 -18 -32 -83 -119
-177 -370 -208 -553 -12 -74 -11 -386 2 -450 7 -35 15 -77 18 -94 14 -84 59
-218 112 -330 28 -60 121 -216 134 -225 4 -3 9 -10 11 -16 7 -19 90 -115 163
-186 66 -66 184 -160 236 -189 14 -8 27 -16 30 -19 28 -28 340 -170 340 -155
0 2 19 -3 43 -11 23 -8 58 -17 77 -20 19 -3 69 -12 110 -19 75 -13 361 -14
425 -1 17 4 66 14 110 22 211 42 458 163 630 308 167 141 294 303 389 494 41
82 100 237 110 292 3 14 13 61 22 105 23 109 24 416 1 530 -22 114 -61 240
-99 326 -37 83 -118 231 -148 269 -92 117 -123 153 -181 210 -37 36 -77 74
-90 84 -40 33 -155 116 -162 116 -3 0 -23 11 -43 25 -34 23 -81 47 -177 90
-54 23 -144 54 -197 66 -25 6 -54 13 -65 16 -11 2 -36 7 -55 9 -19 3 -42 8
-50 11 -17 7 -355 14 -361 8z m404 -789 c579 -586 738 -751 743 -772 15 -59
-37 -124 -99 -124 -32 0 -49 14 -194 161 -660 671 -668 679 -698 679 -17 0
-41 -8 -55 -18 -14 -9 -131 -124 -260 -255 -486 -493 -550 -557 -562 -558 -7
0 -21 -2 -32 -4 -28 -5 -61 13 -79 45 -20 33 -22 63 -5 91 12 19 304 319 789
809 161 163 185 179 234 156 11 -5 109 -99 218 -210z m108 -550 c188 -190 344
-348 347 -351 3 -3 6 -159 6 -347 1 -296 -1 -345 -15 -361 -14 -18 -30 -20
-235 -19 -270 0 -250 -1 -267 17 -12 11 -15 51 -15 205 -1 105 -4 199 -7 210
-9 27 -24 30 -179 32 -115 1 -141 -2 -157 -15 -21 -18 -20 -10 -20 -279 0
-109 -3 -141 -15 -153 -18 -18 -3 -17 -272 -17 -184 -1 -216 1 -230 15 -14 15
-16 56 -16 358 -1 187 1 345 4 350 3 4 158 164 345 354 252 257 345 345 362
345 17 0 111 -88 364 -344z"/>
</g>
</svg>
